/* XPM */
static char *result[] = {
/* columns rows colors chars-per-pixel */
"35 35 223 2 ",
"   c #562D05",
".  c #613404",
"X  c #6B4106",
"o  c #7C4B04",
"O  c #744504",
"+  c #7E5109",
"@  c #804D04",
"#  c #835202",
"$  c #8E5B02",
"%  c #885B0C",
"&  c #935F00",
"*  c #966201",
"=  c #9B6502",
"-  c #946610",
";  c #A66B04",
":  c #B67502",
">  c #BB7701",
",  c #B57B00",
"<  c #BD7A02",
"1  c #BA790B",
"2  c #A47214",
"3  c #AE7C14",
"4  c #AC7D19",
"5  c #AE780A",
"6  c #C37C00",
"7  c #C97D00",
"8  c #C17700",
"9  c #BC8917",
"0  c #C68302",
"q  c #C98501",
"w  c #CD8B01",
"e  c #C3840B",
"r  c #CB8C0C",
"t  c #C78B04",
"y  c #D18C00",
"u  c #D68E0B",
"i  c #DA8F00",
"p  c #CE9006",
"a  c #CE940B",
"s  c #D39302",
"d  c #DA9601",
"f  c #D59A03",
"g  c #DB9B01",
"h  c #D3950B",
"j  c #D69B0C",
"k  c #DA9B0B",
"l  c #DA9608",
"z  c #C48C14",
"x  c #CB8C14",
"c  c #C88819",
"v  c #CD9515",
"b  c #CB931A",
"n  c #C7951A",
"m  c #D39314",
"M  c #D59C14",
"N  c #DA9E12",
"B  c #D2941A",
"V  c #D39C1C",
"C  c #DC9519",
"Z  c #E29D01",
"A  c #E09700",
"S  c #DEA201",
"D  c #DDA40F",
"F  c #DCA214",
"G  c #D7A21D",
"H  c #DBA41A",
"J  c #DFA91D",
"K  c #E3A301",
"L  c #EAA501",
"P  c #E4AB02",
"I  c #EBAB01",
"U  c #E4A40B",
"Y  c #E4AA0C",
"T  c #EBAB0C",
"R  c #F0A700",
"E  c #F1AC01",
"W  c #ECB301",
"Q  c #EDB40C",
"!  c #F4B502",
"~  c #FAB600",
"^  c #F6BB02",
"/  c #FABC00",
"(  c #F4BB0D",
")  c #F8BC09",
"_  c #E3A914",
"`  c #EBAC13",
"'  c #E4A41B",
"]  c #E3AC1C",
"[  c #E6A816",
"{  c #F0AF14",
"}  c #ECB513",
"|  c #EEB913",
" . c #EBB31C",
".. c #EDB91A",
"X. c #E7B31D",
"o. c #F3BD13",
"O. c #F0B01C",
"+. c #F2BC1C",
"@. c #F6B913",
"#. c #C99521",
"$. c #C79722",
"%. c #D19627",
"&. c #D49829",
"*. c #D59724",
"=. c #D89B38",
"-. c #DBA424",
";. c #DEAA24",
":. c #DBA62A",
">. c #DDAB2C",
",. c #D5A527",
"<. c #CFA530",
"1. c #DBA734",
"2. c #E2AD23",
"3. c #E1AD2A",
"4. c #E4B126",
"5. c #EBB423",
"6. c #E5B22B",
"7. c #E9B42A",
"8. c #EBB92B",
"9. c #ECB922",
"0. c #F4BD24",
"q. c #E1AE32",
"w. c #E5AA36",
"e. c #E4B335",
"r. c #E2B73C",
"t. c #E6B83F",
"y. c #EABA38",
"u. c #FBC102",
"i. c #FBC20B",
"p. c #FFCC07",
"a. c #FFD100",
"s. c #FFCC15",
"d. c #FECA1C",
"f. c #FAC318",
"g. c #FFD31D",
"h. c #F4C323",
"j. c #F9C523",
"k. c #FCC52B",
"l. c #F7C329",
"z. c #FFD12D",
"x. c #ECC33A",
"c. c #FECE35",
"v. c #F5C936",
"b. c #FFD53B",
"n. c #FFD83D",
"m. c #FFE73A",
"M. c #CB9B4B",
"N. c #CF9058",
"B. c #CB824B",
"V. c #DAA65B",
"C. c #E6AF44",
"Z. c #E7B746",
"A. c #E6BA5B",
"S. c #E8BA58",
"D. c #F4BC5D",
"F. c #DFAD67",
"G. c #E8B968",
"H. c #F2BF63",
"J. c #EFC843",
"K. c #EAC447",
"L. c #F4C64E",
"P. c #F3CC4D",
"I. c #F6CB43",
"U. c #FFDB44",
"Y. c #FFDB4E",
"T. c #FED648",
"R. c #F9CE5C",
"E. c #F5CB53",
"W. c #EFD250",
"Q. c #FCD556",
"!. c #F4D25C",
"~. c #FEDA5C",
"^. c #F9D857",
"/. c #ECC856",
"(. c #FFE84A",
"). c #FFF14E",
"_. c #FDE55C",
"`. c #FFEC5D",
"'. c #FFF85C",
"]. c #EAC766",
"[. c #FDDB6C",
"{. c #F6D668",
"}. c #EACA74",
"|. c #F3DA79",
" X c #F8DE7D",
".X c #FFE163",
"XX c #FEE56D",
"oX c #FFEB6A",
"OX c #FEF46E",
"+X c #FDE47D",
"@X c #FEE675",
"#X c #FFFA75",
"$X c #FFF37F",
"%X c #F5D688",
"&X c #E4C69B",
"*X c #F0CC91",
"=X c #EDD497",
"-X c #F4D798",
";X c #FEEC84",
":X c #FAE58A",
">X c #FFF78D",
",X c #F6E19D",
"<X c #FFF694",
"1X c #FFF995",
"2X c #FFF49D",
"3X c #EFD8A7",
"4X c #F5DBAD",
"5X c #EFDABC",
"6X c #FFF5AD",
"7X c #FFF2A6",
"8X c #FAEBB0",
"9X c #F6E3B2",
"0X c #FFFEB2",
"qX c #FFF4B1",
"wX c #FAEAA7",
"eX c #FFFEC6",
"rX c #FFFAD6",
"tX c #F7EDC6",
"yX c #FFFFE6",
"uX c #FFFFEB",
"iX c #FFFFFF",
"pX c #FFFFF1",
"aX c None",
/* pixels */
"aXaXaXaXaXaXaXaXaXaXaXaXd Z Z L Z U I f.z.aXaXaXaXaXaXaXaXaXaXaXaXaXaX",
"aXaXaXaXaXaXaXaXaXaXZ E ~ E R U Z Z Z L { k.(.).m.aXaXaXaXaXaXaXaXaXaX",
"aXaXaXaXaXaXaXaXd ~ ~ T U U Z Z d d l h w q *.].#X'.(.aXaXaXaXaXaXaXaX",
"aXaXaXaXaXaX8 E ~ { T L Z L w.C.C.w.d y y y q 7 V.+X#XOXaXaXaXaXaXaXaX",
"aXaXaXaXaXi / ~ O.R R H.%X%X}.}.}.}.}.G.=.y t r 7 M.:X0XeX2XaXaXaXaXaX",
"aXaXaXaXZ u.! O.R D.-X-XG.=.l u q u B M.M.6 w w x 7 %.wXuXuX6XaXaXaXaX",
"aXaXaXaX/ ) { R *X4XF.y i g g N S.d l y 0 : > w q x 7 M rXiXpXaXaXaXaX",
"aXaXaXu./ @.R 4X5XC A 2.U Z k i %XV.y m l i 6 > y 7 c 8 S.uXiXrXaXaXaX",
"aXaXs.a.( ! R.3X*.Z ' L Z K h u [.&X7 B s y s 6 6 y q c 7 %XuXyXqXaXaX",
"aXaXd.~ ^ ) J.g L T L L K K 6 d c.9XN.u u s w s < w w 0 c y 8XrXeXaXaX",
"aXT.s.^ / f w ` T L L K L s < ' u.2X&X7 b y w w w 8 s q z 7 ].qX0X:XaX",
"aXU.u.u.E ; P W W P L K K 6 q U u._.tXB.7 q w r s 0 w w 0 0 a E.Q.Q.aX",
"aXb.^ i.s 0 ^ ! W I L L g 0 h L @.a.7X=Xg #.q 7 7 0 6 y q q < $.q.4.aX",
"oXz.) i.t S W K L I I P g d d K ) i.n.oX`._.^.W.K.q.e w q q 0 3 $.G M ",
"_.s.f.Q 1 I W 0 p f g S g -.A.Z 5.R.k.s.c.b.U.U.v.:.0 q w 0 0 2 <.q.,.",
"~.i.f.` 0 ( u.P 0 p p g g m K.' d I.0.! ! ! I Z 8 7 w q w 0 w ; 9 V v ",
"~.i.j.` s ( | u.j r p s f r 6.F s 8. .L K g f < 6 s w q w q q = ; , , ",
"~.i.j...k o.( | ! a j w s e e.k w 6.` K g k 6 1 w w w w w q y = # * $ ",
"~.f.l.+.F f.f.| | Y 9 0 w r &.s f -.Y P g 8 : w w w w w w 7 q = # * & ",
".Xs.h.l.4...+...| | h 1 w w y y s g K Q +.#.0 w w w w w y q y $ # = * ",
"XXz.f.v.y. .h...| | M 1 p w s f s f S +.Y.Z.0 s y y w s w q w # o $ $ ",
";Xn.f.l.L.2.........v 9 f S P P K g f W ~./.q s s s w d q q q . O o o ",
"aXY.) Q {.r.} 9.X.5.v f P W P P P P S S b.!.r s f p s g q y >   X O aX",
"aX.Xf.Q L.].P 8.9.7.V W u.S v 9 z a D S 5.^.#.s f p S f w s = . o o aX",
"aX+Xc.5.W %X/.S y.4.;.p.P n b H H n z D S I.1.p f f S w p w + O # @ aX",
"aXaX~.} W H.9Xq.5.e.8.7.%.;.] J J ] H v f 7.>.s f L f p f 5 X + + aXaX",
"aXaX;Xc.8.P *X9XU 4.e.4.7.4.4.4.2.;.J F M j N j I S p h a % % - - aXaX",
"aXaXaXXXW e.P =X,XX.] 8.7.7.4.4.4.2.J J H k k Y U a a j 3 - 4 9 aXaXaX",
"aXaXaXaX~.P e.K }.:XK.] 3.4.7.4.4.2.J H H _ Q U j j f n 4 9 n aXaXaXaX",
"aXaXaXaX1X~.S e.K Z.{.^.x.7.4.2.2.;.2.X...} k M M f ,.<.V ] G aXaXaXaX",
"aXaXaXaXaX1X~.S e._ D t.I.v.v.v.h.h.0...J V V G p q.Z.,.8.4.aXaXaXaXaX",
"aXaXaXaXaXaX1X[.X.F >.-.-.;.3.2.>.;.-.,.-.-.M M t.P.x.x.8.aXaXaXaXaXaX",
"aXaXaXaXaXaXaXaX+XR.5.D H -.:.:.>.:.-.H f g r.!.~.Y.P.aXaXaXaXaXaXaXaX",
"aXaXaXaXaXaXaXaXaXaX+X{.L.y.2.] H H >.y.!.XXXXXX!.aXaXaXaXaXaXaXaXaXaX",
"aXaXaXaXaXaXaXaXaXaXaXaX<X;X X|.|.|.+X;X>XaXaXaXaXaXaXaXaXaXaXaXaXaXaX"
};
