/* XPM */
static char *result[] = {
/* columns rows colors chars-per-pixel */
"50 50 107 2 ",
"   c #030D00",
".  c #080F00",
"X  c #1A2102",
"o  c #033500",
"O  c #093500",
"+  c #023E00",
"@  c #0B3E00",
"#  c #183302",
"$  c #183D01",
"%  c #223402",
"&  c #0B4000",
"*  c #144401",
"=  c #1C4501",
"-  c #204601",
";  c #264A01",
":  c #2D4C01",
">  c #324E02",
",  c #394E03",
"<  c #2F5002",
"1  c #375202",
"2  c #395203",
"3  c #036D00",
"4  c #126F01",
"5  c #027000",
"6  c #0E7200",
"7  c #007E00",
"8  c #1D7301",
"9  c #2F7A02",
"0  c #415204",
"q  c #475A05",
"w  c #4A5B05",
"e  c #018300",
"r  c #0A8400",
"t  c #028C00",
"y  c #098C00",
"u  c #108101",
"i  c #148D00",
"p  c #1A8D01",
"a  c #039100",
"s  c #0A9100",
"d  c #1D9101",
"f  c #2C8C02",
"g  c #308F01",
"h  c #249101",
"j  c #2D9201",
"k  c #319402",
"l  c #3B9602",
"z  c #319904",
"x  c #3D9802",
"c  c #448404",
"v  c #4A8504",
"b  c #4C8904",
"n  c #518A05",
"m  c #5B8D05",
"M  c #419202",
"N  c #459903",
"B  c #489A03",
"V  c #639106",
"C  c #629E05",
"Z  c #6B9908",
"A  c #759908",
"S  c #4EA104",
"D  c #54A305",
"F  c #5BA505",
"G  c #57A807",
"H  c #59A907",
"J  c #61A505",
"K  c #6CA407",
"L  c #64AB06",
"P  c #6BAD06",
"I  c #77A707",
"U  c #7BA507",
"Y  c #73AD07",
"T  c #78A907",
"R  c #7DA10A",
"E  c #72A908",
"W  c #6CB207",
"Q  c #71B207",
"!  c #79B107",
"~  c #74B108",
"^  c #7BB408",
"/  c #7EBA09",
"(  c #82A50A",
")  c #84AA0A",
"_  c #88AC09",
"`  c #80B609",
"'  c #8BB70A",
"]  c #84BC09",
"[  c #8CBD0A",
"{  c #91B60B",
"}  c #93B90B",
"|  c #99BF0C",
" . c #8EC20C",
".. c #92C40C",
"X. c #9BC30D",
"o. c #9EC90E",
"O. c #A0C70D",
"+. c #A2CC0E",
"@. c #A6D20E",
"#. c #ABD30F",
"$. c #AED80F",
"%. c #B1DA0F",
"&. c #ADD410",
"*. c #AFD810",
"=. c #B0D710",
"-. c #B2DB10",
";. c None",
/* pixels */
";.;.;.;.;.;.;.;.;.;.;.;.;.;.;.;.;.;.;.;.;.;.;.;.;.;.;.;.;.;.;.;.;.;.;.;.;.;.;.;.;.;.;.;.;.;.;.;.;.;.",
";.;.;.;.;.;.;.;.;.;.;.;.;.;.;.;.;.;.;.;.;.;.;.;.;.;.;.;.;.;.;.;.;.;.;.;.;.;.;.;.;.;.;.;.;.;.;.;.;.;.",
";.;.;.;.;.;.;.;.;.;.;.;.;.;.;.;.;.;.;.;.;.;.;.;.;.;.;.;.;.;.;.;.;.;.;.;.;.;.;.;.;.;.;.;.;.;.;.;.;.;.",
";.;.;.;.;.;.;.;.;.;.;.;.;.;.;.;.;.;.;.;.;.;.;.;.;.;.;.;.;.;.;.;.;.;.;.;.;.;.;.;.;.;.;.;.;.;.;.;.;.;.",
";.;.;.;.;.;.;.;.;.;.;.;.;.;.;.;.;.;.;.;.;.;.;.;.;.;.;.;.;.;.;.;.;.;.;.;.;.;.;.;.;.;.;.;.;.;.;.;.;.;.",
";.;.;.;.;.;.;.;.;.;.;.;.;.;.;.;.;.;.;.;.;.;.;.;.;.;.;.;.;.;.;.;.;.;.;.;.;.;.;.;.;.;.;.;.;.;.;.;.;.;.",
";.;.;.;.;.;.;.;.;.;.;.;.;.;.;.;.;.;.;.;.;.;.;.;.;.;.;.;.;.;.;.;.;.;.;.;.;.;.;.;.;.;.;.;.;.;.;.;.;.;.",
";.;.;.;.;.;.;.;.;.;.;.;.;.;.;.;.;.;.;.;.;.;.;.;.;.;.;.;.;.;.;.;.;.;.;.;.;.;.;.;.;.;.;.;.;.;.;.;.;.;.",
";.;.;.;.;.;.;.;.;.;.;.;.;.;.;.;.;.;.;.;.;.;.;.;.;.;.;.;.;.;.;.;.;.;.;.;.;.;.;.;.;.;.;.;.;.;.;.;.;.;.",
";.;.;.;.;.;.;.;.;.;.;.;.;.;.;.;.;.;.;.;.;.;.;.;.;.;.;.;.;.;.;.;.;.;.;.;.;.;.;.;.;.;.;.;.;.;.;.;.;.;.",
";.;.;.;.;.;.;.;.;.;.;.;.;.;.;.;.;.;.;.;.;.;.;.;.;.;.;.;.;.;.;.;.;.;.;.;.;.;.;.;.;.;.;.;.;.;.;.;.;.;.",
";.;.;.;.;.;.;.;.;.;.;.;.;.;.;.;.;.;.;.;.;.;.;.;.;.;.;.;.;.;.;.;.;.;.;.;.;.;.;.;.;.;.;.;.;.;.;.;.;.;.",
";.;.;.;.;.;.;.;.;.;.;.;.;.;.;.;.;.;.;.;.;.;.;.;.;.;.;.;.;.;.;.;.;.;.;.;.;.;.;.;.;.;.;.;.;.;.;.;.;.;.",
";.;.;.;.;.;.;.;.;.;.;.;.;.;.;.;.;.;.;.;.;.;.;.;.;.;.;.;.;.;.;.;.;.;.;.;.;.;.;.;.;.;.;.;.;.;.;.;.;.;.",
";.;.;.;.;.;.;.% 0 w w w w w w q w w w w w w w w w w w w w w w w w w w w w w w w w 0 % ;.;.;.;.;.;.;.",
";.;.;.;.;.;.;., U [ ' ' [ } | | | | | | } [ ' ' ' } ' ' { ' ' [ ' ' [ ' ' { ' ' [ U , ;.;.;.;.;.;.;.",
";.;.;.;.;.;.;.: C ~ W P J ] &.=.&.=.=.=. .P P W L H L H L J J L J L L P P P P L Q C : ;.;.;.;.;.;.;.",
";.;.;.;.;.;.;., T ] ' N u D o.&.@.@.#.@.H S ^ P e e e e e e e e e 7 j F F B J p / T 2 ;.;.;.;.;.;.;.",
";.;.;.;.;.;.;.w X.*.&.P d G +.&.#.#.#.@.P ~ +...k t p p p i i p p i h H ^ ^ T ..&.| w ;.;.;.;.;.;.;.",
";.;.;.;.;.;.;.w X.&.&.P d G +.&.#.#.#.#.W Q +...j t y y t y t s i y k K ^ ^ ^ ] #.X.w ;.;.;.;.;.;.;.",
";.;.;.;.;.;.;.q | =.&.K p G +.&.O.#.#.O.E Y +...j t y t t t a t y t f F ^ ! T [ $.X.q ;.;.;.;.;.;.;.",
";.;.;.;.;.;.;.w | &.#.P p H +.&.#.#.#.#.P Q +...j t y t t t t t y t h F ^ ^ ^ [ $.| w ;.;.;.;.;.;.;.",
";.;.;.;.;.;.;.w | =.#.P p G +.&.#.#.#.#.P Q +...j t y t t t t t y t j L ^ ^ ^ ] $.| q ;.;.;.;.;.;.;.",
";.;.;.;.;.;.;.w | =.#.P p G +.&.+.#.#.#.P Q +...f t a t t t t t y t p D ^ ^ ~ ..#.| q ;.;.;.;.;.;.;.",
";.;.;.;.;.;.;.w | =.&.K d G o.&.+.#.#.@.W Q +...j t y t t t t t i e l P ^ ! ^ ! $.| w ;.;.;.;.;.;.;.",
";.;.;.;.;.;.;.q X.=.&.K p G o.&.#.#.#.#.W Q +. .k t y t t t a t y t i S ^ ^ Y o.#.X.q ;.;.;.;.;.;.;.",
";.;.;.;.;.;.;.q | &.&.P p G o.&.#.#.@.@.P Y +...f t y t t t t t y t k L ^ ! ^ ^ #.| q ;.;.;.;.;.;.;.",
";.;.;.;.;.;.;.w | &.&.K p H @.&.+.#.&.&.P Q +. .j t y t t t t t y t p D ^ ` ! } #.| w ;.;.;.;.;.;.;.",
";.;.;.;.;.;.;.q | &.&.P p H O.#.@.&.&.@.P Q +. .k t t t t t t t t t h F ^ ! ! ] #.X.q ;.;.;.;.;.;.;.",
";.;.;.;.;.;.;., A ) ( v 4 c A ( ( A ( ( b n R Z 8 3 5 5 5 5 5 5 6 3 9 m m n V c ) A , ;.;.;.;.;.;.;.",
";.;.;.;.;.;.;.$ : > < * & = : > : > : > = = : ; @ + + + & + + + @ @ = ; - * ; @ : > $ ;.;.;.;.;.;.;.",
";.;.;.;.;.;.;.;.;.  * 1 2 = o O = ; ; ; > = @ ; > & + + + + + + o = : $ - 2 : > . ;.;.;.;.;.;.;.;.;.",
";.;.;.;.;.;.;.;.;.# _ o.O.E g f } O.X.X.X.E C | } f e e e e e r e M E K E X.o._ # ;.;.;.;.;.;.;.;.;.",
";.;.;.;.;.;.;.;.;.X | #.#.^ k z o.&.@.&.@.^ L +.+.z y y a t t y t s G ^ ^ [ &.} X ;.;.;.;.;.;.;.;.;.",
";.;.;.;.;.;.;.;.;.X } #.&.^ k z O.&.#.#.@.^ L +.o.j y t t t t y t j P ^ ^ X.*.} X ;.;.;.;.;.;.;.;.;.",
";.;.;.;.;.;.;.;.;.X } #.&.^ k z O.&.@.#.#.~ P +.+.z y y t t t y t f L ^ ^ ..&.} X ;.;.;.;.;.;.;.;.;.",
";.;.;.;.;.;.;.;.;.X } $.&.^ k z o.&.&.#.@.^ L +.+.z y t y t t t t h L ^ ^ [ &.} X ;.;.;.;.;.;.;.;.;.",
";.;.;.;.;.;.;.;.;.X } &.#.^ k z o.&.@.#.@.^ P +.o.j y t t t t y t k Y ! ^ o.&.} X ;.;.;.;.;.;.;.;.;.",
";.;.;.;.;.;.;.;.;.X } &.&.^ k z o.&.@.&.@.^ P +.+.j y y t t t t t i G ^ ^ [ &.} X ;.;.;.;.;.;.;.;.;.",
";.;.;.;.;.;.;.;.;.X } &.&.^ z j o.&.@.&.@.^ L +.+.z y t y t t y e x Y ~ ^ o.&.} X ;.;.;.;.;.;.;.;.;.",
";.;.;.;.;.;.;.;.;.X } $.#.^ k z o.&.@.#.@.! L +.+.k y t a t t t t h F ^ ^  .#.} X ;.;.;.;.;.;.;.;.;.",
";.;.;.;.;.;.;.;.;.X | #.#.^ k z O.&.#.&.@.^ P +.+.k y t t t t y t k P ! ^ X.#.} X ;.;.;.;.;.;.;.;.;.",
";.;.;.;.;.;.;.;.;.X } #.&.^ k j O.&.#.#.@.^ L +.+.j y y t t t t e h L ! ^ ..#.| X ;.;.;.;.;.;.;.;.;.",
";.;.;.;.;.;.;.;.;.X } #.&.^ z z O.&.+.#.#.! L +.@.k y t t t t t t h L ^ ^ ..#.} X ;.;.;.;.;.;.;.;.;.",
";.;.;.;.;.;.;.;.;.X } $.&.^ k z o.&.@.#.@.^ L o.o.j y t t t a y t k P ! ` X.$.} X ;.;.;.;.;.;.;.;.;.",
";.;.;.;.;.;.;.;.;.X } &.&.^ k z o.&.#.#.@.^ P @.o.z y t t t t t t h J ^ ^ [ $.} X ;.;.;.;.;.;.;.;.;.",
";.;.;.;.;.;.;.;.;.X } &.&.^ k z o.&.@.#.@.^ L +.+.k y t t t a s t l Y ! ` o.&.} X ;.;.;.;.;.;.;.;.;.",
";.;.;.;.;.;.;.;.;.X { &.&.^ k z o.#.&.#.@.^ K +.o.k y y t t t a t h J ^ ^ [ *.{ X ;.;.;.;.;.;.;.;.;.",
";.;.;.;.;.;.;.;.;.X X.=.-. .z z $.-.-.-.-./ W $.@.z a a a a a a t z Q ] ] o.$...X ;.;.;.;.;.;.;.;.;.",
";.;.;.;.;.;.;.;.;.X } $.$./ z z @.-.$.$.$./ W @.@.z s a a a a a s h H ] /  .%.} X ;.;.;.;.;.;.;.;.;."
};
