/* XPM */
static char *result[] = {
/* columns rows colors chars-per-pixel */
"50 50 256 2 ",
"   c #1A1514",
".  c #08070A",
"X  c #330708",
"o  c #320F0A",
"O  c #311F24",
"+  c #241F26",
"@  c #560201",
"#  c #500E03",
"$  c #660001",
"%  c #770000",
"&  c #721611",
"*  c #582807",
"=  c #5A2A18",
"-  c #522B10",
";  c #692706",
":  c #6C3703",
">  c #7A3901",
",  c #642A17",
"<  c #693419",
"1  c #77391B",
"2  c #752D19",
"3  c #6F0B38",
"4  c #502F2B",
"5  c #6A3925",
"6  c #763B28",
"7  c #6F3033",
"8  c #774736",
"9  c #6C4A36",
"0  c #04195B",
"q  c #000D4D",
"w  c #011B64",
"e  c #021D6A",
"r  c #031D76",
"t  c #131F69",
"y  c #0C216B",
"u  c #0A226A",
"i  c #1B2B68",
"p  c #092274",
"a  c #08247B",
"s  c #142979",
"d  c #1D317B",
"f  c #25336C",
"g  c #303974",
"h  c #18265D",
"j  c #54304C",
"k  c #623A4E",
"l  c #4F3772",
"z  c #6A105D",
"x  c #384478",
"c  c #524B4F",
"v  c #73514E",
"b  c #676366",
"n  c #7A7779",
"m  c #6E6D74",
"M  c #5C5A61",
"N  c #880203",
"B  c #950303",
"V  c #8C1918",
"C  c #951411",
"Z  c #A50202",
"A  c #B70406",
"S  c #AA0E13",
"D  c #8C2B15",
"F  c #952E2A",
"G  c #AF2A28",
"H  c #A91F22",
"J  c #C70506",
"K  c #D80709",
"L  c #D60B19",
"P  c #CD1A13",
"I  c #EB0000",
"U  c #E80807",
"Y  c #F40101",
"T  c #FE0000",
"R  c #FD090A",
"E  c #FE1502",
"W  c #E70B11",
"Q  c #FD081A",
"!  c #E91619",
"~  c #FB1819",
"^  c #F9211B",
"/  c #D2102A",
"(  c #F11926",
")  c #D52C2F",
"_  c #FD2C2C",
"`  c #E92C35",
"'  c #FC2A35",
"]  c #E92F30",
"[  c #AC4900",
"{  c #854B35",
"}  c #875437",
"|  c #965A3A",
" . c #90482D",
".. c #AF4D3A",
"X. c #A9662D",
"o. c #C6711D",
"O. c #9C2567",
"+. c #CE2668",
"@. c #D8304A",
"#. c #985543",
"$. c #8E5650",
"%. c #AE554A",
"&. c #936551",
"*. c #A9654B",
"=. c #B66747",
"-. c #B56757",
";. c #B97559",
":. c #B27053",
">. c #897B7C",
",. c #91706A",
"<. c #B17D62",
"1. c #A64C64",
"2. c #D24E4B",
"3. c #FF4C4A",
"4. c #FF565A",
"5. c #EF5751",
"6. c #C67B5A",
"7. c #C9714E",
"8. c #CE7064",
"9. c #FE7879",
"0. c #F7736B",
"q. c #FF5E66",
"w. c #DDBD3C",
"e. c #FCE210",
"r. c #AD927B",
"t. c #D08258",
"y. c #CA8567",
"u. c #D78566",
"i. c #D89878",
"p. c #D18F71",
"a. c #E58E68",
"s. c #E9946A",
"d. c #EA9979",
"f. c #F69D77",
"g. c #E88E71",
"h. c #FCA678",
"j. c #F8AE79",
"k. c #EF8155",
"l. c #F1E55F",
"z. c #082886",
"x. c #12318C",
"c. c #052994",
"v. c #153799",
"b. c #093191",
"n. c #2D3A8C",
"m. c #0137AA",
"M. c #153AA3",
"N. c #163EAC",
"B. c #193EAC",
"V. c #193AA4",
"C. c #0732B0",
"Z. c #303EA7",
"A. c #001C8B",
"S. c #4D368C",
"D. c #533EAA",
"F. c #304597",
"G. c #0042B7",
"H. c #1942B4",
"J. c #1A45BC",
"K. c #1641B4",
"L. c #1940AD",
"P. c #2641B5",
"I. c #364BB2",
"U. c #006098",
"Y. c #464E88",
"T. c #4853AA",
"R. c #6F70B3",
"E. c #645AA1",
"W. c #003AD0",
"Q. c #0023E3",
"!. c #1B47C2",
"~. c #1C49C5",
"^. c #1D4BCC",
"/. c #1D47CB",
"(. c #004AD6",
"). c #1B4DD3",
"_. c #014CCE",
"`. c #234BC8",
"'. c #214ED2",
"]. c #224FD9",
"[. c #2553DB",
"{. c #2452D6",
"}. c #395AD8",
"|. c #3152CA",
" X c #3071CF",
".X c #0057E4",
"XX c #1954E9",
"oX c #0042F4",
"OX c #2858E4",
"+X c #345EE5",
"@X c #3A6AF1",
"#X c #0064F8",
"$X c #425BCE",
"%X c #566DD5",
"&X c #4F71EF",
"*X c #6F77D2",
"=X c #953798",
"-X c #9D3285",
";X c #D5188A",
":X c #827F87",
">X c #954F8E",
",X c #8955C9",
"<X c #947CC2",
"1X c #7F8083",
"2X c #6985F0",
"3X c #5D88C4",
"4X c #898789",
"5X c #989798",
"6X c #8F888F",
"7X c #B29B93",
"8X c #8F95A7",
"9X c #A89EB8",
"0X c #A8A7A9",
"qX c #AAABB8",
"wX c #B7B6B8",
"eX c #B1AFB2",
"rX c #A2A1A1",
"tX c #D3948F",
"yX c #FA8587",
"uX c #F19592",
"iX c #CFA78D",
"pX c #FBA786",
"aX c #FEB587",
"sX c #FAB896",
"dX c #EEA58E",
"fX c #C7AAA8",
"gX c #F1B0AF",
"hX c #FFC188",
"jX c #FFC796",
"kX c #F5CA97",
"lX c #FED5AA",
"zX c #FFDCB4",
"xX c #EEC7BB",
"cX c #FFE3B5",
"vX c #B2B6C7",
"bX c #839EF8",
"nX c #D4BDC2",
"mX c #C5C4C8",
"MX c #CCCDD5",
"NX c #D6D5D8",
"BX c #D0CECF",
"VX c #FCC6C9",
"CX c #EED3D1",
"ZX c #D5D8EB",
"AX c #DDE6F5",
"SX c #DEE4EA",
"DX c #E7E6EA",
"FX c #F7EAED",
"GX c #E8ECF7",
"HX c #EBF2FB",
"JX c #F3F6FC",
"KX c #FCFDFF",
"LX c #F5F5F8",
"PX c #F1ECF1",
"IX c #F4DFE1",
"UX c None",
/* pixels */
"UXUXUXUXUXUXUXUXUXUXUXUXUXUXUXUXUXUXUXUXUXUXUXUXUXUXUXyXq.4.3.T R UXUXUXUXUXUXUXUXUXUXUXUXUXUXUXUXUX",
"UXUXUXUXUXUXUXUXUXUXUXUXUXUXUXUXUXUXUXUXUXUXUXUXUX9.4.' R T T yXVXVXyXUXUXUXUXUXUXUXUXUXUXUXUXUXUXUX",
"UXUXUXUXUXUXUXUXUXUXUXUXUXUXUXUXUXUXUXUXUXUXUXuXq.Q Y Y ' Y uXGXuXCXgXgXUXUXUXUXUXUXUXUXUXUXUXUXUXUX",
"UXUXUXUXUXUXUXUXUXUXUXUXUXUXUXUXUXUXUXUXUXUXyX( Y ! ! ! ` I gXCX5.yX0.VXuXUXUXUXUXUXUXUXUXUXUXUXUXUX",
"UXUXUXUXUXUXUXUXUXUXUXUXUXUXUXUXUXUXUXUXgX9.Y ( ! U W W ] Y uXtXgXKXIXtXyXUXUXUXUXUXUXUXUXUXUXUXUXUX",
"UXUXUXUXUXUXUXUXUXUXUXUXUXUXUXUXUXUXUXUX9.U ) L K L W W ( I P tXnXCXCXgX3.UXUXUXUXUXUXUXUXUXUXUXUXUX",
"UXUXUXUXUXUXUXUXUXUXUXUXUXUXUXUXUXUXUXyXI ) L K J L L K K ( Q ' _ U ` 2.) 2.2.2.UXUXUXUXUXUXUXUXUXUX",
"UXUXUXUXUXUXUXUXUXUXUXUXUXUXUXUXUXUXyX! P A J J K J J ` ' ' ` P S F N N V V C C ) UXUXUXUXUXUXUXUXUX",
"UXUXUXUXUXUXUXUXUXUXUXUXUXUXUXUXUXyX2.A S A A J A ) ` ` G $ o { | | *.6 @ V V N H UXUXUXUXUXUXUXUXUX",
"UXUXUXUXUXUXUXUXUXUXUXUXUXUXUXuXq.` A S Z Z Z A P ) F - . 4 < 4 *.7.7., 4 % C H %.UXUXUXUXUXUXUXUXUX",
"UXUXUXUXUXUXUXUXUXUXUXUXUXUXUX9.J G H N B B B D  .} *.6 =.t.y.7.i.j.j.p.7.F ..UXUXUXUXUXUXUXUXUXUXUX",
"UXUXUXUXUXUXUXUXUXUXUXUXUXUXUX5.Z Z B N N $ X } *.*.6.h.dXR.BXxXaXkXkXMXVXUXUXUXUXUXUXUXUXUXUXUXUXUX",
"UXUXUXUXUXUXUXUXUXUXUXUXUXUXUX8.A %...% # o X 8 6.s.j.hXqXU.8XPXdXlXkX3XIXUXUXUXUXUXUXUXUXUXUXUXUXUX",
"UXUXUXUXUXUXUXUXUXUXUXUXUXUXUXUXdXpXpX;.X 4 = 2 6.f.aXaXvXz.n.SXgXjXaXd.sXlXcXcXUXUXUXUXUXUXUXUXUXUX",
"UXUXUXUXUXUXUXUXUXUXUXUXUXUXUXUXaXk.7.7.#.# = @ %.pXhXjXfX X9XNXdXu.u.pXsXzXcXcXcXUXUXUXUXUXUXUXUXUX",
"UXUXUXUXUXUXUXUXUXUXUXUXUXUXUXsXaXh.2.%.*.7 @ 6 dXsXhXi.o v 7Xi.*.<.8.g.aXjXjXjXlXUXUXUXUXUXUXUXUXUX",
"UXUXUXUXUXUXUXUXUXUXUXUXUXUXUXUXaXaXa.%.*.*.5 ;.pXpXf.*.. . X O . v t.:.p.j.j.jXlXUXUXUXUXUXUXUXUXUX",
"UXUXUXUXUXUXUXUXUXUXUXUXUXUXUXUXdXsXsX-.-.:.8.dXd.pXg.-.$.o + O 4   8 t.t.a.a.j.UXUXUXUXUXUXUXUXUXUX",
"UXUXUXUXUXUXUXUXUXUXUXUXUXUX0.4.3.3.0.0.*.#.u.g.8.u.g.u.u.u.*.o     . 4 9 5 b UXUXUXUXNXGXLXUXUXUXUX",
"UXUXUXUXUXUXUXKXKXJXHXFX9.T _ R R T T E ^ ] 2.*.6.6.6.a.s.h.s.;.t.=.8 8 1 i.UXUXNXLXBXmXmXDXKXKXUXUX",
"UXUXUXUXJXKXKXKXKXKXDXAXPX9.T _ ~ ^ ^ ~ ~ R T J  .=.7.;.y.y.s.h.h.s.a.s.jXzXUX>.5XDXKXeXeXmXNXKXKXUX",
"UXUXKXKXKXJXJXKXKXKXKXPXSXFX_ T ~ U W R ~ ~ ~ ~ K 4 $.X.:.;.t.a.j.j.j.jXlXUXUX>.c 4XwX6X5X0XBXLXKXUX",
"UXKXKXKXJXJXJXHXJXKXKXKXPXDXdXU ] A J K U U W ~ ~ I S.m.6 | :.:.y.d.aXUXUXUXmX>.b 4Xb . n rXeXBXKXKX",
"AXHXAXGXGXHXHXHXJXKXLXKXPXNXfXZ #.C N B A J U U ( E +..X].z ; k F 3.UXUXUX-.6Xb v eXrXc c R.eXNXKXLX",
"NXvXvXZXZXAXAXHXJXLXLXLXPXmXUXUXUXUXO.% & B A K U ~ T D.#X,XU 3 O.Y Q F & % k eX0XR.5X4XM b 6X5XfXUX",
"UXeX8XqXqXMXAXAXGXDXDXDXLXUXUXUXUXUX>XA L L L L ! ' T -X.XoX;XR O./ E K N S $ m BX0X1X4Xm n 4XrXUXUX",
"UXwX0X4Xm rXmXNXNXBXmXBXDXUXUXUXUXUX$XO.L I U U Y R E =X}.qX9X;X=X1.K / A Z $ @ r.wX1Xn 5XrXUXUXUXUX",
"UXUXwX4Xb 1X0XmXeXr.n NXDXUXUXUXUXbX`.m.D.=X+.+.+.;X*XW.i.e.l.+X_.r.o.S C V 2 F D UXrXUXUXUXUXUXUXUX",
"UXUXUX0Xn 4X5XwXNXeX0XNXUXUXUXUXUX2Xm.H.G.G._._._.(..XW.r.e.e.*XQ.0Xw.3  .UXUXUXUXUXUXUXUXUXUXUXUXUX",
"UXUXUXUXUX0X5X0XrX5XeXUXUXUXUXUXbX&Xm.L.L.P.P.J.`.|.|.!.m.m R.(.[.%XUXUXUXUXUXUXUXUXUXUXUXUXUXUXUXUX",
"UXUXUXUXUXUXUX,.k - j T.UXUXUXUX2X^.N.L.L.K.H.J.^.^.^.'.`.W.Q.).&X*XUXUXUXUXUXUXUXUXUXUXUXUXUXUXUXUX",
"UXUXUXUXUXUX,.M # j x.B.T.UXUXUX&XC.v.M.K.H.H.H.J.`.`.~.^.|.'.^.+XUXUXUXUXUXUXUXUXUXUXUXUXUXUXUXUXUX",
"UXUXUXUXUX,.v ; j x.r A.c.P.$X*X+Xm.x.v.L.L.L.K.K.J.J.~.~.~.!.G.$XUXUXUXUXUXUXUXUXUXUXUXUXUXUXUXUXUX",
"UXUXUXUXiX$.D v Z.e s z.c.c.C.&XI.b.x.v.M.M.L.L.K.J.~.).).).{.|.%XUXUXUXUXUXUXUXUXUXUXUXUXUXUXUXUXUX",
"UXUXUXp.&.> D F.c.t r z.A.x.A.I.I.z.s v.L.K.J.~.^.{.{.[.OXOXXXOX&XUXUXUXUXUXUXUXUXUXUXUXUXUXUXUXUXUX",
"UXUXy.{ : D c m.p t p a z.z.A.c.F.x.a z.v.L.L.J.J.~.^.).[.[.OXOXXX@X2XUXUXUXUXUXUXUXUXUXUXUXUXUXUXUX",
"UXy.8 : D > l b.i e y p t r a r y x d u a b.v.L.K.J.J.~.^.{.{.OX@XXX@XUXUXUXUXUXUXUXUXUXUXUXUXUXUXUX",
"r.v ; 8 8 > j u 0 w w t t t t t 0 0 i f i u a x.v.L.L.K.J.~.).{.OX+XXX&XUXUXUXUXUXdXUXUXUXUXUXUXUXUX",
"UXv # 1 1 1 = i f f i y w w w 0 0 q q h x x d u u a x.v.L.L.J.).[.+XOX+X&XUXUX&.=.7.7.d.xXUXUXUXUXUX",
"UX,.= = ; < 5 UXUXUXUXY.g g i i i f f x x UXUXx f i 0 u x.L.K.~.{.[.OX[.XXT.1 $.#.X.7.[ p.UXUXUXUXUX",
"UXUXUXv 9 $.UXUXUXUXUXUXUXUXUXUXUXUXUXUXUXUXUXUXUXUXx d z.v.K.J.`.{.[.).`.j 8 $. .-.p.;.[ 7XUXUXUXUX",
"UXUXUXUXUXUXUXUXUXUXUXUXUXUXUXUXUXUXUXUXUXUXUXUXUXUXUXY.z.v.L.H.~.'.'.).I.: 8 1 F #.:.*.% tXUXUXUXUX",
"UXUXUXUXUXUXUXUXUXUXUXUXUXUXUXUXUXUXUXUXUXUXUXUXUXUXUXUXF.a v.L.K.~.~._.S.> 6 1  . . .; t.hXUXUXUXUX",
"UXUXUXUXUXUXUXUXUXUXUXUXUXUXUXUXUXUXUXUXUXUXUXUXUXUXUXUXT.z.x.v.N.H.!.J.7 : 6 1 1 1 * 7.aXUXUXUXUXUX",
"UXUXUXUXUXUXUXUXUXUXUXUXUXUXUXUXUXUXUXUXUXUXUXUXUXUXUXUXUXT.p z.M.B.C.S.: 5 , < * 1 7.j.UXUXUXUXUXUX",
"UXUXUXUXUXUXUXUXUXUXUXUXUXUXUXUXUXUXUXUXUXUXUXUXUXUXUXUXUXUXF.u v.m.n.: < < , *  .:.UXUXUXUXUXUXUXUX",
"UXUXUXUXUXUXUXUXUXUXUXUXUXUXUXUXUXUXUXUXUXUXUXUXUXUXUXUXUXUXT.v.a f : < = * < | t.UXUXUXUXUXUXUXUXUX",
"UXUXUXUXUXUXUXUXUXUXUXUXUXUXUXUXUXUXUXUXUXUXUXUXUXUXUXUXUXUXUXY.O * = - * | r.UXUXUXUXUXUXUXUXUXUXUX",
"UXUXUXUXUXUXUXUXUXUXUXUXUXUXUXUXUXUXUXUXUXUXUXUXUXUXUXUXUXUXUXUX9 = - < } UXUXUXUXUXUXUXUXUXUXUXUXUX",
"UXUXUXUXUXUXUXUXUXUXUXUXUXUXUXUXUXUXUXUXUXUXUXUXUXUXUXUXUXUXUXUXUXUX8 8 UXUXUXUXUXUXUXUXUXUXUXUXUXUX"
};
