/* XPM */
static char *result[] = {
/* columns rows colors chars-per-pixel */
"50 50 61 1 ",
"  c #131714",
". c #191516",
"X c #111914",
"o c #131E18",
"O c #261F17",
"+ c #291E17",
"@ c #2A1E19",
"# c #16221B",
"$ c #252017",
"% c #2A2117",
"& c #2A231A",
"* c #382117",
"= c #352519",
"- c #3A2519",
"; c #35281C",
": c #3B2B1E",
"> c #432C1F",
", c #4A2D1D",
"< c #4E301F",
"1 c #53311F",
"2 c #5B311E",
"3 c #66331B",
"4 c #68341C",
"5 c #4C3121",
"6 c #543321",
"7 c #5B3521",
"8 c #5D3A25",
"9 c #5D3B2A",
"0 c #613C27",
"q c #6A3A23",
"w c #633D29",
"e c #743E23",
"r c #6F4027",
"t c #68412F",
"y c #7C4125",
"u c #77442A",
"i c #7D452A",
"p c #7F482C",
"a c #844325",
"s c #894627",
"d c #83472A",
"f c #894628",
"g c #81482D",
"h c #8C4A2B",
"j c #944D2C",
"k c #984F2D",
"l c #97512F",
"z c #9C512E",
"x c #844B31",
"c c #8B4F32",
"v c #9E5330",
"b c #A1542F",
"n c #A45631",
"m c #A65833",
"M c #A95933",
"N c #AD5E39",
"B c #B15D36",
"V c #B35F38",
"C c #B46037",
"Z c #B46038",
"A c #BB643A",
/* pixels */
"idddddddfdddiddddddddfdi66eddgddfddidddddddgdddidc",
"kbmmnbnnbmnnnnnmnbnnmbbh77fvmnnnnnnnnnbmnnnnnmnnnn",
"nMMMMMMMMMMMMMMMNMMMMMmj77hmMMMMMNBMMMMMNMMMMMNMBB",
"kMMMMmMmMMMMmmMMMmmmmMbj77fnMMmMnMMnmmMMmMmMnMMMMM",
"vMMMMMmMMnMnmMMMMmMMmMmh72fnMMMMnMMMnMMnMMMnMMMMMB",
"vMMMMMmMMMMMnMMnMMmMmMmh77fnMMMMMMMMMMMMMmMMnMMMMM",
"vMMMMmMMnMMnMMMMmmMMnMbh77fnMMmMMMMMMMMMMMMMMMMMBM",
"vMMmMMMmMMMMMMMMMMMmMMMj72fnMMmMMMnMnMnMnMMnMMnMMB",
"vMMMMMmMMnMMMMmMMMMMMmmh72fnMMMMMmMMMmMMmMMMMMMMMM",
"vMMMmMMnMMMMmMMnMMnMnMmj76fnMMMMMmMmnMMnMMmmmMMMBM",
"vMMMmMMMMMnMmMMMMnnMMMMh72fnMMMnMMMMMnMMMmMMMMMMBM",
"vMMMMMmMMnMMMMmMMMMMMMnc72xnmMMMmMMMMMMMMnmMMmMMMB",
"vMMMMMMmMnMMMmMmnMMMMmmh72fnMMMMMmmMMMmmMMMMMMMMMM",
"bMMMMMMMMMMMMMMMMMMMMMMj76hmMMMMMMMMMMMMMMMMMMMMBB",
"VAAAAAAAAAAAAAAAAVAAAAVj5>fVAAAVAAAAAAAAAAAAAAAAVA",
"hxggggggdggidippxgggpgu0::8udggxgpppppipppdddggghc",
"@@+%O++%$%&::;%+@@@+@@+O@@OO++++%++%;:;&%%%++@++@&",
">-*******=;;;-*********-,,>-********;;;:********-5",
"ffsfssssssa1<4ssffssssffassfffassssse16ysfssffssfj",
"nMBBMMMMMBz81pMMBMBMBMBMMBMMBMBMMBMBh17lMBMMMBMMMB",
"vMMMMMMMMMz25ybmMMnMMMMnnMMnMMMMmMMMd72jMMmMMmMMMM",
"zMMmMMMMMMz81ymMnMMMMMMMMMMMMnMMMMmMd62jMMMMMMmMMB",
"nMMMMMmmMMz2<ybMMMMMnMMMMMMMMMnMmmBmh18lMMMmmmMMMB",
"kMMMMmmMMMz81ymMMMnMMMMnMMMMnMMMmmmmh11lMMMMMMMMBM",
"vMMMMMMMMMz81ybMMMMMmMMMnMMMMMMMMmMMs12lMnMMMmMMMM",
"nMMMMMnMMMk2<ybMMnMnMMmMMMMMnMnMMbMMh11jMMMnMMMMMB",
"zMMMMMMMMMz71ybMMnMMMmMmMMMnMMMMMMMMh17lMMmMmMMMMM",
"zMMMMnMMMMk0<ybMMMMMMnMmMnMMMnMMMMMmh<7lMnMMmMMMBM",
"bMMMMMMMmMk77enMMMMMmMMMMMMMMMMMmmMMd62jMMMMmnMMMB",
"zMMMMnMnMmk81enMMnMMMmmMMmMMMnnMMMmMf67kMMMmMMMMBM",
"kmMmnmnnmmk76ebbmMbnmnmmnnMmnnnnnnnmf78kbmbnmmnMMM",
"MVVVVVVVZVn75aBVVVVVVVVVVVVVVVVVCCCCh51kVVVVVVVVAV",
"Mmmmmmmvmmd<:qvmmmmvmvvmvmmmmmmmmmmle><immmmmmbmMN",
"w099889999<::>6989989989ww9902889898>=;<888088898r",
".XXXXXXXXX$==&ooXXX #XX###ooXXXXXXoX$==$XXXXXXoXo.",
"444444443333333334333332,,223333333233333323333234",
"jzzvzzzzzzzkzzzzzzzvzzzf11ykzzzzzzzzzzkzzzzzzzzzzb",
"nMMMMMMMMMMMmmMMMMMMMMMh81hnMmMMMMmMmmMMMMMMmmMMMB",
"zMMmMmmmMMMMmMMmnMnMMMMh21hnMmmmmMmmmMMMmMMmmmmMBM",
"vMMMMMMMMMMMMmMMMMMMnMMh81dbMMmMMMMMMMMMMMmMMMmMMM",
"zMMMmbMMMMMMbMMMnMMnMMMh71dnMMnMMMMMMMMmmMMMMMMMBM",
"zMMmMMMMMMMMMMMMMMMMMMMh76fvMMMMMMMMMMMMMMMbMMbMMM",
"zMMMmMMMbMMMMMbMMMMMMmMh72snMMmMbMMMMMmMMMMMMMMMMB",
"bMMMMMMbmMMMMMMMMnMMnmMh76dnMnMMMMmbMMbMMMMMMMMMMM",
"zMMmMMMMMMMMMMMMMMMMMMnj71snMMmmMMMbMMMMbMMMMMMmMB",
"nMMMMMMMMMMmbMMMnMMnmMnj71svMMMMMMMMMMMMMMMMMbmMMB",
"nMMMmMMMMMMMMMMMMMMMMMnh71dnMmMMMMMMMMMMMMMMMMMMBm",
"knMmMMmmbMbMMMMbMmmMMnnj76fvMMmmMbMMmmbMMMMMMmmMMB",
"nBVBBBBMVBBBBMVBBBBBMBBl07hmNBBBBBBBMBBBBBBBBMBBBB",
"VVAAAAAAAAAAAAAAAAAAAAAmt9vZAAAAAAAAAAAAAAAAAAAAAA"
};
